<?xml version="1.0" standalone="no"?>
<!DOCTYPE svg PUBLIC "-//W3C//DTD SVG 20010904//EN"
 "http://www.w3.org/TR/2001/REC-SVG-20010904/DTD/svg10.dtd">
<svg version="1.0" xmlns="http://www.w3.org/2000/svg"
 width="320.000000pt" height="320.000000pt" viewBox="0 0 320.000000 320.000000"
 preserveAspectRatio="xMidYMid meet">
<metadata>
Created by potrace 1.14, written by Peter Selinger 2001-2017
</metadata>
<g transform="translate(0.000000,320.000000) scale(0.100000,-0.100000)"
fill="#000000" stroke="none">
<path d="M1654 2939 c-3 -6 -17 -14 -31 -20 -13 -5 -22 -13 -19 -18 4 -5 -7
-12 -24 -16 -16 -4 -32 -11 -35 -16 -4 -5 -224 -9 -539 -9 -460 0 -540 -2
-587 -16 -112 -33 -178 -107 -211 -236 -20 -80 -20 -86 -5 -160 12 -59 36
-115 103 -240 47 -90 150 -282 227 -428 78 -146 221 -416 318 -600 l178 -335
-52 -6 c-29 -3 -100 -4 -160 -1 -92 4 -107 7 -103 21 2 9 7 26 11 39 10 34
-12 87 -41 101 -36 16 -255 15 -278 -2 -14 -10 -36 -89 -85 -308 -89 -390 -91
-382 102 -387 139 -3 166 5 179 54 l8 32 228 -2 c203 -1 230 -3 246 -18 22
-23 54 -23 88 0 51 33 97 23 181 -42 136 -104 254 -121 400 -59 37 16 38 16
53 -5 22 -32 54 -27 117 18 60 43 77 65 77 100 0 12 4 18 10 15 6 -4 140 -8
297 -10 251 -2 287 -5 295 -19 12 -21 52 -20 84 1 20 12 49 17 116 17 108 1
108 1 133 123 10 48 26 121 36 162 26 101 24 125 -7 150 -25 20 -38 20 -406
20 -209 0 -382 2 -384 4 -3 2 176 345 396 760 225 424 408 780 416 809 17 64
18 129 3 200 -21 99 -84 178 -178 222 -44 20 -66 21 -442 26 -374 5 -398 6
-418 24 -12 11 -37 20 -56 20 -19 1 -35 3 -35 6 0 24 -192 51 -206 29z m31 -9
c-3 -5 -11 -10 -16 -10 -6 0 -7 5 -4 10 3 6 11 10 16 10 6 0 7 -4 4 -10z m132
-119 c129 -19 226 -84 278 -186 27 -53 49 -154 43 -200 l-3 -28 -44 42 c-24
23 -61 51 -82 61 -39 20 -113 27 -123 12 -8 -13 60 -42 97 -42 18 0 42 -7 53
-16 16 -13 17 -15 1 -10 -36 11 -147 28 -159 23 -7 -2 7 -7 32 -11 88 -14 178
-38 209 -57 36 -22 39 -44 11 -99 -18 -35 -37 -48 -76 -54 -7 -1 -17 -6 -21
-10 -18 -19 63 6 84 26 l24 22 -7 -75 c-15 -182 -49 -272 -153 -402 -68 -85
-101 -111 -101 -77 0 11 -3 20 -7 20 -5 0 -18 8 -31 18 -17 13 -26 39 -41 117
-11 55 -17 102 -15 104 2 2 15 -4 29 -13 41 -27 28 -3 -27 51 -85 81 -114 87
-168 38 -14 -12 -38 -30 -55 -38 l-30 -16 30 -1 c30 0 31 -1 43 -70 7 -39 12
-90 12 -115 0 -39 -3 -45 -24 -51 -16 -4 -34 0 -48 10 -37 26 -74 21 -90 -14
-7 -16 -16 -30 -19 -30 -3 0 -26 18 -50 39 -49 43 -91 112 -109 179 -11 43
-12 44 -32 25 -20 -18 -21 -17 -58 24 -51 58 -64 113 -44 189 15 58 25 78 52
101 19 16 42 5 42 -20 0 -26 5 -20 14 16 4 19 3 26 -4 22 -5 -3 -10 -2 -10 3
0 6 12 13 27 17 21 5 24 8 12 15 -11 7 -3 21 41 65 30 30 60 55 67 55 7 0 23
11 37 25 14 14 33 25 44 25 10 0 22 4 28 10 5 5 47 10 94 11 79 2 83 3 55 15
-69 30 -172 7 -224 -50 -14 -14 -29 -26 -35 -26 -6 0 -28 -17 -49 -37 l-38
-38 6 30 c4 17 14 43 21 59 17 36 17 41 1 30 -7 -5 -6 -2 3 6 9 8 28 49 43 90
30 80 75 132 147 167 66 32 178 41 297 24z m-437 -40 c0 -5 -7 -14 -15 -21 -8
-7 -15 -18 -15 -26 0 -11 -82 -14 -448 -16 l-449 -3 -35 -27 c-49 -38 -72 -99
-66 -180 5 -65 28 -111 350 -708 19 -36 58 -108 87 -161 47 -87 53 -96 76 -91
29 5 31 0 9 -32 -10 -17 -12 -26 -4 -31 19 -12 42 3 35 24 -3 11 1 24 11 32
24 20 214 60 214 45 0 -18 -22 -46 -35 -46 -8 0 -15 -6 -15 -14 0 -8 -5 -18
-12 -22 -8 -5 -9 -2 -5 10 5 12 3 16 -5 13 -7 -2 -13 -12 -13 -22 0 -19 -75
-48 -101 -38 -8 3 -21 -1 -30 -8 -13 -10 -17 -10 -25 2 -5 8 -9 9 -9 3 0 -18
40 -59 48 -49 4 6 23 11 42 13 19 1 36 7 38 11 2 5 11 7 20 4 12 -3 21 5 29
24 11 27 11 26 8 -13 -8 -93 -17 -116 -46 -127 -39 -15 -45 -45 -10 -50 25 -3
25 -4 4 -13 -21 -9 -21 -9 -3 -44 l18 -35 12 45 c64 251 94 333 132 365 16 14
35 25 41 25 7 0 4 -7 -5 -14 -22 -16 -23 -30 -2 -22 13 5 15 -1 12 -39 -3 -34
-11 -49 -32 -66 -21 -16 -26 -27 -22 -45 3 -12 2 -26 -4 -29 -5 -3 -10 -11
-10 -18 0 -8 3 -8 12 1 20 20 28 14 28 -24 0 -22 4 -33 11 -29 19 13 59 -4 59
-25 0 -12 7 -20 18 -21 16 -1 16 -2 0 -6 -10 -2 -18 -8 -18 -12 0 -4 -17 -8
-37 -8 -38 -1 -38 -1 -10 10 18 8 27 18 27 34 0 42 -45 24 -60 -23 -7 -26 -8
-26 -9 -6 -1 33 -24 22 -37 -17 -6 -19 -18 -38 -27 -43 -10 -5 -17 -20 -17
-33 0 -13 -7 -31 -16 -39 -14 -15 -13 -21 13 -72 30 -60 49 -76 65 -53 6 9 11
10 14 3 5 -12 54 -7 54 6 0 4 11 5 24 3 13 -3 29 2 37 10 7 7 21 12 31 9 10
-2 26 -1 35 3 26 11 53 13 53 3 0 -4 -4 -8 -10 -8 -5 0 -10 -7 -10 -15 0 -11
7 -14 25 -9 31 8 33 -4 2 -15 -20 -8 -23 -15 -19 -45 5 -40 13 -49 36 -40 10
4 16 19 17 43 l1 36 12 -33 c6 -18 15 -30 19 -26 14 15 37 -19 36 -55 l-1 -36
-10 38 c-14 52 -38 49 -40 -5 -1 -37 -2 -39 -5 -10 -2 17 -8 32 -13 32 -24 0
-40 -15 -41 -39 -2 -23 -2 -24 -6 -4 -5 26 -7 27 -34 12 -11 -5 -17 -14 -14
-20 4 -5 1 -9 -4 -9 -6 0 -11 4 -11 10 0 6 -9 6 -26 0 -30 -12 -75 -13 -57 -2
8 5 9 20 1 55 -10 50 -10 50 -46 40 -21 -5 -23 -10 -17 -40 3 -19 9 -41 12
-49 4 -11 -4 -14 -33 -14 l-39 0 -132 253 c-73 138 -161 304 -194 367 -344
645 -498 941 -509 974 -16 50 -8 160 15 210 10 21 34 54 53 72 63 61 79 63
575 63 250 1 447 -3 447 -8z m1367 -3 c69 -17 136 -86 158 -162 34 -118 23
-153 -190 -551 -170 -319 -189 -354 -385 -725 -106 -201 -199 -373 -205 -383
-11 -15 -14 -13 -29 21 -17 37 -17 38 9 85 15 26 25 56 22 69 -4 20 -4 19 -6
-4 -2 -43 -21 -33 -21 11 0 32 -5 43 -29 60 -37 26 -37 26 -35 -6 0 -16 12
-35 30 -50 16 -12 25 -23 19 -23 -5 0 -23 11 -39 24 -23 18 -30 31 -30 61 -1
45 -26 62 -26 18 -1 -25 -2 -26 -11 -10 -6 10 -9 27 -6 37 3 12 -4 22 -19 31
-13 7 -24 19 -24 26 0 12 3 11 16 -1 22 -22 29 -20 32 9 1 15 -4 28 -13 31 -8
4 -15 10 -15 15 0 4 6 6 13 3 10 -3 12 4 9 30 -2 18 1 37 7 40 6 4 11 2 11 -3
0 -6 4 -11 9 -11 6 0 6 12 1 29 -4 16 -5 44 -1 62 l8 34 7 -32 c7 -32 22 -50
33 -40 11 12 -10 65 -30 75 -18 9 -19 11 -4 11 16 1 26 31 10 31 -5 0 -9 11
-9 25 -1 14 2 25 7 25 5 0 9 -7 9 -15 0 -7 8 -19 18 -24 9 -6 12 -11 5 -11 -6
0 -9 -9 -6 -20 7 -25 20 -26 25 -2 10 44 71 -177 93 -333 l7 -50 44 89 c24 48
44 92 44 96 0 16 -42 23 -51 9 -7 -11 -9 -10 -9 4 0 10 7 29 16 42 15 24 15
25 -7 34 l-24 10 23 0 c13 1 20 5 17 11 -8 14 -2 13 45 -6 23 -9 42 -15 44
-13 6 9 79 144 146 274 40 77 76 145 80 150 4 6 74 136 156 290 l149 280 0 70
c0 84 -25 140 -76 170 -32 19 -57 20 -354 25 -264 4 -319 7 -317 19 2 7 -5 22
-14 32 -17 19 -9 19 300 19 208 0 333 -4 363 -12z m-1450 -155 c-8 -10 -18
-36 -22 -58 -7 -38 -25 -116 -46 -197 -5 -21 -16 -38 -23 -38 -22 0 -64 -57
-76 -101 -12 -44 -13 -84 -6 -164 l4 -50 -173 0 c-149 0 -172 2 -167 15 4 11
-1 10 -16 -4 -21 -18 -22 -18 -22 -1 0 18 -1 18 -15 -1 -14 -18 -15 -17 -9 11
4 17 21 62 37 100 85 201 254 374 461 471 81 38 96 41 73 17z m944 -176 c115
-106 198 -232 244 -368 25 -72 32 -112 14 -74 -9 19 -17 20 -139 15 -111 -4
-130 -3 -130 10 0 13 -1 13 -10 0 -9 -13 -10 -13 -11 0 0 10 -3 9 -10 -5 -6
-13 -8 7 -4 62 5 75 3 85 -16 104 -19 19 -21 28 -14 78 7 55 7 100 1 171 -4
36 2 60 13 60 3 0 31 -24 62 -53z m-71 -292 c0 -14 -4 -25 -10 -25 -5 0 -10
11 -10 25 0 14 5 25 10 25 6 0 10 -11 10 -25z m-10 -143 c-11 -98 -60 -176
-91 -145 -8 8 -7 19 7 42 10 17 22 31 27 31 4 0 7 8 5 18 -2 9 2 16 9 15 7 -2
10 3 7 11 -3 8 2 42 12 77 22 80 35 54 24 -49z m-450 58 c31 -17 54 -120 85
-380 9 -75 40 -195 72 -282 24 -63 28 -89 29 -193 0 -66 6 -133 12 -148 7 -16
12 -33 12 -38 0 -5 -43 -9 -95 -9 -91 0 -95 -1 -112 -26 -16 -25 -16 -30 -1
-73 9 -25 14 -58 11 -73 -5 -26 -7 -27 -26 -13 -12 8 -42 15 -68 15 -43 0 -48
3 -59 31 -10 22 -10 33 -1 42 8 8 11 8 11 -2 0 -7 5 -9 10 -6 21 13 9 26 -19
20 -26 -5 -33 0 -80 55 -28 34 -51 65 -51 69 0 4 9 16 20 26 11 10 20 22 20
27 0 5 -11 -3 -24 -17 l-25 -26 -16 25 c-19 29 -11 50 16 43 11 -3 16 -1 13 4
-3 5 -17 8 -32 7 -25 -3 -29 3 -57 72 -37 91 -51 116 -81 153 -28 33 -31 73
-7 99 22 24 30 23 82 -12 59 -40 72 -27 22 24 -47 48 -51 76 -16 111 33 34 53
31 97 -12 45 -44 51 -29 8 20 -36 41 -36 46 -9 81 33 42 70 35 129 -23 49 -47
51 -47 63 -27 14 25 12 246 -3 326 -8 40 -6 59 5 86 14 35 32 42 65 24z m-547
-70 c-6 -6 -33 30 -33 43 0 5 9 -1 19 -14 11 -13 17 -26 14 -29z m176 -189
c17 -21 45 -48 64 -61 l34 -23 -24 -36 c-13 -19 -37 -41 -53 -47 -29 -12 -57
-54 -63 -93 -5 -34 -16 -35 -28 -5 -14 37 -24 282 -14 360 l7 59 23 -58 c13
-32 37 -75 54 -96z m671 -82 c-14 -98 -38 -165 -84 -239 l-34 -54 -20 65 c-11
36 -23 86 -27 110 -7 44 -6 46 32 71 21 14 61 50 88 81 28 30 52 53 54 51 2
-2 -2 -40 -9 -85z m-1341 -777 c7 -13 2 -52 -16 -133 -14 -63 -27 -115 -28
-117 -2 -2 -20 14 -39 35 -32 33 -36 43 -31 74 4 34 3 36 -23 35 -30 -1 -33
-10 -85 -246 l-24 -110 28 0 c29 0 33 6 45 73 3 20 9 37 12 37 16 0 72 -67 72
-86 0 -33 -22 -127 -33 -142 -11 -14 -204 -16 -227 -2 -19 12 -16 37 49 320
34 145 61 268 61 272 0 5 52 8 115 8 100 0 115 -2 124 -18z m1380 -1 c8 -14 1
-59 -25 -172 -28 -123 -40 -159 -61 -181 -25 -26 -26 -30 -21 -127 l5 -99 -48
-36 c-27 -20 -50 -36 -52 -36 -3 0 -7 51 -11 113 -4 61 -9 135 -12 162 -6 50
-5 50 39 84 39 29 46 40 56 90 6 31 14 66 18 79 5 22 3 23 -28 20 -33 -3 -33
-3 -54 -90 -11 -48 -26 -93 -32 -100 -7 -6 -13 -37 -14 -68 0 -30 -11 -93 -22
-140 l-22 -85 -37 -1 c-20 -1 -41 2 -47 5 -7 4 9 91 45 246 53 231 57 269 38
333 l-6 22 140 0 c128 0 142 -2 151 -19z m-1269 -160 c0 -26 -25 -117 -34
-123 -6 -4 1 -8 16 -8 23 0 27 5 34 43 4 23 6 47 5 52 -14 45 -14 45 26 45 22
0 42 -2 45 -5 4 -4 -20 -117 -67 -322 -4 -18 -12 -23 -35 -23 -33 0 -33 -4 -8
94 5 22 6 41 1 45 -5 3 -15 21 -22 39 -8 18 -16 31 -18 29 -2 -3 1 -15 7 -28
7 -18 6 -43 -8 -99 -16 -69 -20 -75 -45 -78 -34 -4 -34 -4 3 156 19 81 28 142
24 161 -6 31 -6 31 35 31 22 0 41 -4 41 -9z m250 -23 c0 -18 -7 -94 -15 -168
-8 -74 -15 -138 -15 -142 0 -5 -12 -8 -27 -8 -25 0 -30 6 -45 53 -22 67 -22
67 2 67 11 0 20 6 20 14 0 7 2 29 5 47 5 34 5 34 -10 -6 -16 -40 -33 -58 -47
-49 -11 7 -10 -1 3 -29 8 -18 7 -32 -5 -60 -13 -32 -20 -37 -47 -37 -21 0 -30
4 -27 13 3 6 31 85 63 175 l58 162 44 0 c42 0 43 -1 43 -32z m208 19 c13 -16
-24 -187 -44 -203 -9 -8 -14 -32 -14 -75 0 -61 -2 -66 -30 -82 l-30 -18 -1 38
c0 44 -16 128 -18 98 -1 -11 -6 -37 -12 -57 -9 -33 -14 -38 -40 -38 -25 0 -29
3 -24 23 43 173 62 273 55 293 -5 12 -6 25 -3 28 12 12 150 6 161 -7z m96 5
c2 -4 -9 -65 -25 -136 -16 -71 -27 -131 -24 -134 2 -3 7 3 11 12 4 10 18 16
36 16 22 0 29 -4 25 -14 -3 -8 -9 -31 -13 -50 l-6 -36 -70 0 c-61 0 -69 2 -64
18 3 9 19 75 35 145 21 90 27 136 21 152 -5 13 -6 26 -3 29 9 9 71 7 77 -2z
m326 -10 c0 -9 -5 -34 -11 -54 -9 -33 -14 -38 -41 -38 -23 0 -29 4 -24 15 3 8
1 15 -4 15 -6 0 -10 -6 -10 -14 0 -8 -3 -21 -6 -30 -5 -13 1 -16 25 -16 17 0
31 -3 31 -7 0 -13 -53 -63 -67 -63 -7 0 -13 -6 -13 -12 0 -7 -3 -24 -6 -38 -5
-23 -4 -24 9 -7 8 9 26 17 41 17 21 0 26 -4 22 -17 -2 -10 -7 -33 -11 -50 l-7
-33 -68 0 c-60 0 -68 2 -64 18 2 9 18 75 34 146 17 71 28 138 24 149 -10 31
-17 9 -55 -160 -33 -153 -33 -153 -61 -153 -15 0 -28 5 -28 11 0 6 14 70 30
141 19 84 28 143 24 164 l-6 33 121 0 c109 1 121 -1 121 -17z m577 2 c5 -14
-24 -162 -58 -296 l-10 -38 -69 0 c-63 0 -70 2 -70 19 0 11 16 89 35 172 19
84 35 154 35 156 0 2 29 3 65 3 51 0 67 -4 72 -16z m178 6 c8 -13 -15 -130
-26 -130 -4 0 -16 14 -26 30 -9 17 -23 30 -30 30 -8 0 -16 -13 -19 -30 -5 -21
-12 -30 -25 -30 -21 0 -24 -8 -8 -30 9 -13 10 -12 5 3 -4 14 1 17 33 17 56 0
68 -32 46 -128 l-17 -72 -68 0 c-38 0 -71 3 -73 8 -4 5 57 288 72 340 3 7 131
0 136 -8z m343 -3 c12 -15 -31 -200 -47 -205 -6 -2 -11 -30 -11 -67 0 -57 -3
-66 -27 -85 l-28 -22 -7 39 c-4 21 -7 64 -7 96 -1 49 3 61 24 80 30 27 46 97
21 97 -10 0 -19 -15 -26 -42 -6 -24 -15 -51 -20 -60 -6 -10 -10 -32 -10 -48 0
-17 -5 -51 -11 -76 -10 -39 -14 -44 -40 -44 -16 0 -29 3 -29 8 1 4 16 71 34
149 24 104 30 146 23 159 -9 16 -12 12 -21 -26 -9 -38 -15 -45 -38 -48 -21 -2
-28 1 -28 13 0 24 -17 9 -22 -20 -5 -23 -2 -25 31 -25 l36 -1 -46 -42 c-41
-38 -70 -97 -48 -97 5 0 9 7 9 15 0 10 10 15 30 15 33 0 35 -6 19 -62 l-10
-38 -64 0 c-36 0 -65 4 -65 9 0 5 14 69 31 142 19 84 28 145 24 166 l-6 32
160 0 c112 0 162 -3 169 -12z m178 -2 c8 -20 -18 -126 -31 -127 -5 0 -16 14
-25 31 -8 17 -20 31 -26 31 -26 0 -20 -29 12 -70 19 -23 34 -47 34 -52 0 -5
-7 -40 -16 -79 l-16 -69 -68 0 c-38 0 -71 3 -73 8 -3 4 2 38 10 75 l15 68 24
-22 c13 -12 24 -31 24 -41 0 -10 7 -18 15 -18 25 0 17 39 -16 85 -34 47 -35
65 -9 158 l11 37 65 0 c48 0 66 -4 70 -15z m-1271 -213 c-12 -13 -24 22 -12
37 10 12 13 11 15 -8 2 -13 1 -26 -3 -29z m-49 -186 c1 0 4 -16 8 -35 l6 -34
-52 6 c-52 7 -138 43 -145 62 -2 6 32 9 89 6 51 -1 93 -4 94 -5z"/>
<path d="M1538 2513 c12 -2 32 -2 45 0 12 2 2 4 -23 4 -25 0 -35 -2 -22 -4z"/>
<path d="M1628 2503 c7 -3 16 -2 19 1 4 3 -2 6 -13 5 -11 0 -14 -3 -6 -6z"/>
<path d="M1687 2485 c23 -10 32 -21 35 -42 2 -23 4 -25 10 -10 9 22 -31 67
-59 67 -11 -1 -6 -6 14 -15z"/>
<path d="M1835 2450 c-4 -6 -23 -8 -43 -5 l-37 5 33 -10 c30 -10 32 -13 32
-59 0 -43 4 -52 35 -80 47 -41 57 -40 17 2 -40 41 -54 114 -27 140 9 9 12 17
6 17 -5 0 -13 -5 -16 -10z"/>
<path d="M1510 2405 l-35 -13 53 0 c29 0 55 4 58 10 3 5 15 6 27 3 17 -5 19
-4 7 4 -19 14 -66 12 -110 -4z"/>
<path d="M1401 2390 c-1 -18 7 -30 34 -50 18 -13 18 -12 -1 10 -12 14 -24 32
-27 40 -5 13 -5 13 -6 0z"/>
<path d="M2040 2375 c0 -5 5 -17 10 -25 5 -8 10 -10 10 -5 0 6 -5 17 -10 25
-5 8 -10 11 -10 5z"/>
<path d="M1674 2348 l-19 -23 23 19 c21 18 27 26 19 26 -2 0 -12 -10 -23 -22z"/>
<path d="M1870 2360 c0 -5 5 -10 10 -10 6 0 10 5 10 10 0 6 -4 10 -10 10 -5 0
-10 -4 -10 -10z"/>
<path d="M1922 2348 c3 -7 15 -15 29 -16 13 -2 28 -8 34 -13 5 -5 14 -9 20 -9
12 1 -66 50 -78 50 -5 0 -7 -6 -5 -12z"/>
<path d="M1468 2323 c7 -3 16 -2 19 1 4 3 -2 6 -13 5 -11 0 -14 -3 -6 -6z"/>
<path d="M1575 2320 l-60 -7 55 -1 c30 -1 62 3 70 8 8 5 11 9 5 8 -5 -1 -37
-4 -70 -8z"/>
<path d="M1186 2261 c-19 -21 -38 -119 -25 -127 5 -3 9 13 9 36 0 41 14 79 34
92 6 4 8 9 5 13 -3 3 -13 -3 -23 -14z"/>
<path d="M1622 2238 c-7 -7 -12 -21 -12 -32 0 -17 3 -16 15 8 17 32 15 42 -3
24z"/>
<path d="M1675 2200 c-8 -12 20 -24 35 -15 6 3 8 11 5 16 -8 12 -32 12 -40 -1z"/>
<path d="M1220 2181 c-5 -11 -10 -27 -10 -35 0 -9 -5 -16 -10 -16 -6 0 -5 -8
2 -20 7 -11 16 -16 19 -12 6 6 17 102 12 102 -1 0 -7 -9 -13 -19z"/>
<path d="M1777 2184 c-9 -10 2 -24 19 -24 8 0 14 7 14 15 0 15 -21 21 -33 9z"/>
<path d="M1841 2147 c-13 -21 -12 -21 5 -5 10 10 16 20 13 22 -3 3 -11 -5 -18
-17z"/>
<path d="M1805 2080 c3 -5 8 -10 11 -10 2 0 4 5 4 10 0 6 -5 10 -11 10 -5 0
-7 -4 -4 -10z"/>
<path d="M1187 1543 c-4 -3 -7 -11 -7 -17 0 -6 5 -5 12 2 6 6 9 14 7 17 -3 3
-9 2 -12 -2z"/>
<path d="M1156 1513 c-6 -14 -5 -15 5 -6 7 7 10 15 7 18 -3 3 -9 -2 -12 -12z"/>
<path d="M990 1499 c-10 -18 -9 -20 12 -17 12 2 24 11 26 21 5 24 -25 22 -38
-4z"/>
<path d="M926 1494 c-9 -23 -8 -24 14 -24 10 0 24 9 30 20 9 17 8 20 -14 20
-13 0 -27 -7 -30 -16z"/>
<path d="M1175 1499 c-11 -17 1 -21 15 -4 8 9 8 15 2 15 -6 0 -14 -5 -17 -11z"/>
<path d="M1140 1469 c0 -5 5 -7 10 -4 6 3 10 8 10 11 0 2 -4 4 -10 4 -5 0 -10
-5 -10 -11z"/>
<path d="M1137 1433 c-4 -3 -7 -13 -7 -22 1 -13 3 -13 11 2 11 19 8 33 -4 20z"/>
<path d="M1018 1407 c-9 -9 -18 -13 -20 -9 -5 15 -68 -8 -68 -24 0 -23 19 -54
33 -54 7 0 18 12 25 28 9 21 11 22 8 5 -3 -17 1 -23 15 -23 24 0 31 17 27 61
-3 31 -4 32 -20 16z"/>
<path d="M1125 1369 c-4 -6 -5 -12 -2 -15 2 -3 7 2 10 11 7 17 1 20 -8 4z"/>
<path d="M1157 1356 c-19 -19 -23 -56 -7 -56 12 0 32 48 27 63 -1 5 -11 2 -20
-7z"/>
<path d="M1115 1326 c-3 -9 -7 -23 -10 -31 -2 -8 -1 -15 4 -15 10 0 25 50 17
58 -3 2 -8 -3 -11 -12z"/>
<path d="M1084 1306 c-3 -8 -4 -23 -2 -33 3 -11 6 -6 9 15 6 34 2 42 -7 18z"/>
<path d="M1103 1250 c-12 -28 -8 -39 8 -23 6 6 9 19 6 29 -3 17 -5 16 -14 -6z"/>
<path d="M1072 1220 c0 -14 2 -19 5 -12 2 6 2 18 0 25 -3 6 -5 1 -5 -13z"/>
<path d="M1061 1164 c0 -11 3 -14 6 -6 3 7 2 16 -1 19 -3 4 -6 -2 -5 -13z"/>
<path d="M1323 1023 c-7 -2 -13 -12 -13 -20 0 -10 6 -13 16 -9 9 3 20 6 25 6
5 0 9 7 9 15 0 15 -14 18 -37 8z"/>
<path d="M1251 1001 c-7 -5 -11 -13 -8 -19 9 -13 59 -2 54 12 -5 14 -28 18
-46 7z"/>
<path d="M1193 992 c-16 -5 -20 -11 -14 -20 11 -19 45 -11 49 11 4 18 0 19
-35 9z"/>
<path d="M1343 982 c-26 -4 -29 -22 -12 -71 8 -22 16 -30 26 -27 8 3 17 6 19
6 6 0 3 63 -4 80 -4 9 -17 14 -29 12z"/>
<path d="M1140 971 c0 -6 5 -13 10 -16 6 -3 10 1 10 9 0 9 -4 16 -10 16 -5 0
-10 -4 -10 -9z"/>
<path d="M1272 962 c-16 -2 -22 -8 -18 -19 3 -8 6 -24 6 -36 0 -35 15 -50 40
-42 20 6 22 11 16 49 -8 48 -13 53 -44 48z"/>
<path d="M2060 1506 c0 -23 19 -66 29 -66 5 0 5 16 -1 40 -10 39 -28 55 -28
26z"/>
<path d="M2022 1424 c2 -15 12 -33 24 -40 20 -14 20 -13 16 18 -7 49 -46 70
-40 22z"/>
<path d="M2230 1419 c-14 -24 -13 -25 23 -34 23 -6 27 -4 27 14 0 11 -9 25
-20 31 -15 8 -21 6 -30 -11z"/>
<path d="M2080 1397 c0 -25 6 -39 19 -46 17 -10 18 -8 11 25 -12 54 -30 66
-30 21z"/>
<path d="M1990 1360 c0 -16 5 -30 10 -30 6 0 10 14 10 30 0 17 -4 30 -10 30
-5 0 -10 -13 -10 -30z"/>
<path d="M2030 1342 c0 -27 26 -62 44 -62 12 0 -4 74 -17 82 -21 13 -27 9 -27
-20z"/>
<path d="M2095 1301 c6 -39 24 -71 38 -71 11 0 -13 84 -28 98 -16 16 -17 14
-10 -27z"/>
<path d="M1992 1290 c2 -18 9 -35 16 -38 18 -6 15 43 -4 59 -14 11 -15 9 -12
-21z"/>
<path d="M2030 1265 c0 -16 10 -35 23 -46 30 -25 37 -24 37 5 0 16 -11 32 -30
46 l-30 21 0 -26z"/>
<path d="M2109 1197 c8 -37 31 -49 31 -15 0 13 -8 28 -19 35 -17 10 -18 9 -12
-20z"/>
<path d="M1658 1530 c2 -16 6 -30 8 -30 2 0 4 14 4 30 0 17 -4 30 -8 30 -5 0
-7 -13 -4 -30z"/>
<path d="M1520 1483 c0 -4 5 -15 10 -23 8 -13 10 -13 10 2 0 9 -4 20 -10 23
-5 3 -10 3 -10 -2z"/>
<path d="M1516 1004 c-26 -19 -17 -26 13 -10 13 7 20 16 15 19 -5 3 -18 -1
-28 -9z"/>
<path d="M365 578 c-12 -36 -43 -193 -39 -200 3 -4 51 -8 108 -8 l103 0 15 71
c15 70 15 72 -8 98 -25 28 -25 28 -42 -39 -7 -30 -13 -35 -41 -38 -54 -5 -60
1 -50 50 5 24 12 51 15 61 4 14 -1 17 -26 17 -17 0 -33 -6 -35 -12z"/>
<path d="M1734 563 c-3 -16 -12 -53 -19 -83 -29 -123 -30 -112 6 -108 31 3 33
5 50 78 10 41 18 90 19 108 0 28 -3 32 -25 32 -19 0 -26 -7 -31 -27z"/>
<path d="M1844 533 c3 -32 8 -93 12 -135 l6 -77 33 22 33 21 -2 113 -1 113
-43 0 -43 0 5 -57z"/>
<path d="M695 578 c-7 -20 -24 -102 -25 -115 0 -7 4 -13 9 -13 5 0 15 26 21
57 7 32 15 63 17 70 3 7 0 13 -6 13 -7 0 -14 -6 -16 -12z"/>
<path d="M780 538 c-6 -29 -14 -61 -17 -72 -3 -12 -1 -17 8 -14 13 4 38 84 39
121 0 37 -19 15 -30 -35z"/>
<path d="M970 569 c0 -13 -8 -23 -20 -26 -12 -3 -19 -8 -18 -12 2 -3 10 -23
18 -43 23 -62 34 -48 43 55 3 35 1 47 -9 47 -8 0 -14 -9 -14 -21z"/>
<path d="M858 500 c-13 -40 -14 -50 -3 -50 18 0 39 65 28 85 -7 12 -13 3 -25
-35z"/>
<path d="M1130 660 c-7 -28 -16 -53 -21 -56 -5 -3 -9 -15 -8 -27 0 -15 2 -17
6 -7 3 8 16 26 28 40 13 14 28 42 33 63 9 33 8 37 -8 37 -13 0 -21 -13 -30
-50z"/>
<path d="M1060 533 c-7 -32 -15 -64 -18 -72 -3 -8 0 -12 8 -9 13 4 39 84 40
121 0 38 -18 14 -30 -40z"/>
<path d="M1131 533 c1 -32 4 -69 8 -83 11 -40 25 -5 22 57 -1 31 3 60 9 69 10
12 8 14 -14 14 -25 0 -26 -2 -25 -57z"/>
<path d="M1238 520 l-15 -71 49 2 c45 2 49 5 56 33 9 34 -5 49 -20 22 -10 -18
-33 -21 -43 -7 -3 6 -1 28 4 50 7 31 6 41 -3 41 -7 0 -19 -30 -28 -70z"/>
<path d="M1415 578 c-7 -20 -24 -102 -25 -115 0 -7 4 -13 9 -13 7 0 41 112 41
135 0 10 -21 5 -25 -7z"/>
<path d="M1505 578 c-11 -33 -25 -95 -25 -109 0 -11 12 -16 45 -18 42 -2 45 0
53 31 9 36 -4 52 -20 24 -10 -18 -33 -21 -43 -7 -3 6 -1 28 4 50 5 25 5 41 0
41 -5 0 -11 -6 -14 -12z"/>
<path d="M2125 633 c-9 -43 -19 -88 -22 -100 -3 -16 -1 -23 9 -23 10 0 20 25
32 78 10 42 20 87 23 100 4 15 1 22 -10 22 -11 0 -20 -23 -32 -77z"/>
<path d="M2058 524 c-18 -75 -16 -77 53 -72 42 3 43 4 56 53 15 61 16 85 3 85
-5 0 -10 -6 -10 -12 0 -7 -5 -30 -11 -51 -9 -33 -14 -38 -37 -35 -26 3 -27 6
-24 51 4 68 -12 58 -30 -19z"/>
<path d="M2283 555 c-9 -40 -8 -45 7 -45 22 0 32 51 15 74 -10 13 -13 8 -22
-29z"/>
<path d="M2236 525 c-9 -35 -16 -66 -16 -68 0 -3 26 -4 57 -3 l56 1 13 55 c17
72 17 76 -4 77 -15 1 -17 -4 -14 -27 6 -40 -13 -70 -45 -70 -25 0 -25 1 -19
50 10 72 -9 62 -28 -15z"/>
<path d="M2421 553 c-5 -21 -12 -52 -16 -69 l-6 -31 47 1 c44 1 48 3 55 30 10
37 2 47 -16 23 -13 -19 -51 -19 -49 -1 1 5 5 26 8 47 4 22 3 37 -3 37 -6 0
-15 -17 -20 -37z"/>
<path d="M2577 527 c-20 -79 -20 -80 -5 -75 15 5 36 99 28 123 -5 13 -12 -1
-23 -48z"/>
<path d="M2651 510 c2 -98 22 -105 27 -10 2 36 8 70 14 77 8 10 4 13 -16 13
l-27 0 2 -80z"/>
<path d="M2842 565 c16 -36 -3 -75 -37 -75 -21 0 -25 5 -25 29 0 40 -16 48
-23 12 -3 -16 -9 -41 -13 -55 l-6 -27 58 3 59 3 12 50 c17 77 16 85 -12 85
-23 0 -24 -2 -13 -25z"/>
</g>
</svg>
